<svg width="439" height="91" viewBox="0 0 439 91" fill="none" xmlns="http://www.w3.org/2000/svg">
<circle cx="45.5" cy="45.5" r="42.5" stroke="url(#paint0_linear)" stroke-width="5"/>
<mask id="mask0" mask-type="alpha" maskUnits="userSpaceOnUse" x="25" y="23" width="41" height="45">
<path d="M52.7281 31.9633C52.7281 27.4776 49.4005 23.8413 45.2957 23.8413C41.1908 23.8413 37.8633 27.4776 37.8633 31.9633C37.8633 36.449 41.1908 40.0853 45.2957 40.0853C49.4005 40.0853 52.7281 36.449 52.7281 31.9633ZM43.5607 44.2394C38.9673 41.1665 31.5272 40.3222 27.7831 40.0895C26.525 40.0117 25.476 41.0591 25.476 42.3815V61.2313C25.476 62.4436 26.3733 63.4546 27.5268 63.5198C30.907 63.7135 37.7456 64.4234 42.4721 67.0249C43.1976 67.4243 44.0577 66.8803 44.0577 66.0207V45.2089C44.0569 44.8138 43.8781 44.4517 43.5607 44.2394ZM62.8082 40.0895C59.065 40.3213 51.624 41.1665 47.0314 44.2394C46.714 44.4517 46.5352 44.8282 46.5352 45.2233V66.0182C46.5352 66.8803 47.3976 67.4251 48.1254 67.0249C52.8512 64.4259 59.6859 63.7161 63.0653 63.5223C64.2188 63.4563 65.1162 62.4453 65.1162 61.2329V42.3815C65.1154 41.0591 64.0663 40.0117 62.8082 40.0895Z" fill="black"/>
</mask>
<g mask="url(#mask0)">
<rect x="12.399" y="23.4327" width="66.2019" height="46.5865" fill="url(#paint1_linear)"/>
</g>
<path d="M103.74 55V34.5215H111.65C114.381 34.5215 116.479 35.0078 117.943 35.9805C119.408 36.9414 120.141 38.3418 120.141 40.1816C120.141 41.2129 119.871 42.1211 119.332 42.9062C118.805 43.6797 118.043 44.248 117.047 44.6113C118.195 44.9043 119.074 45.4609 119.684 46.2812C120.293 47.1016 120.598 48.0508 120.598 49.1289C120.598 51.1562 119.9 52.6445 118.506 53.5938C117.111 54.5312 115.084 55 112.424 55H103.74ZM108.838 46.4746V50.9219H112.424C113.408 50.9219 114.17 50.7285 114.709 50.3418C115.248 49.9434 115.518 49.4219 115.518 48.7773C115.518 47.2891 114.621 46.5215 112.828 46.4746H108.838ZM108.838 43.0469H111.967C114.018 43.0469 115.043 42.332 115.043 40.9023C115.043 40.082 114.791 39.502 114.287 39.1621C113.795 38.8105 113.039 38.6348 112.02 38.6348H108.838V43.0469ZM129.105 55H124.008V34.5215H129.105V55ZM132.955 55V34.5215H140.865C143.596 34.5215 145.693 35.0078 147.158 35.9805C148.623 36.9414 149.355 38.3418 149.355 40.1816C149.355 41.2129 149.086 42.1211 148.547 42.9062C148.02 43.6797 147.258 44.248 146.262 44.6113C147.41 44.9043 148.289 45.4609 148.898 46.2812C149.508 47.1016 149.812 48.0508 149.812 49.1289C149.812 51.1562 149.115 52.6445 147.721 53.5938C146.326 54.5312 144.299 55 141.639 55H132.955ZM138.053 46.4746V50.9219H141.639C142.623 50.9219 143.385 50.7285 143.924 50.3418C144.463 49.9434 144.732 49.4219 144.732 48.7773C144.732 47.2891 143.836 46.5215 142.043 46.4746H138.053ZM138.053 43.0469H141.182C143.232 43.0469 144.258 42.332 144.258 40.9023C144.258 40.082 144.006 39.502 143.502 39.1621C143.01 38.8105 142.254 38.6348 141.234 38.6348H138.053V43.0469ZM157.986 50.9219H167.32V55H152.889V34.5215H157.986V50.9219ZM175.09 55H169.992V34.5215H175.09V55ZM197.414 45.1738C197.414 47.1777 197.021 48.9473 196.236 50.4824C195.451 52.0176 194.326 53.2012 192.861 54.0332C191.408 54.8652 189.756 55.2812 187.904 55.2812C186.041 55.2812 184.377 54.8711 182.912 54.0508C181.459 53.2305 180.334 52.0645 179.537 50.5527C178.74 49.0293 178.336 47.2773 178.324 45.2969V44.3828C178.324 42.3672 178.717 40.5918 179.502 39.0566C180.287 37.5215 181.406 36.3379 182.859 35.5059C184.312 34.6621 185.982 34.2402 187.869 34.2402C189.721 34.2402 191.367 34.6504 192.809 35.4707C194.262 36.291 195.387 37.4688 196.184 39.0039C196.992 40.5273 197.402 42.2852 197.414 44.2773V45.1738ZM192.316 44.3652C192.316 42.4199 191.924 40.9258 191.139 39.8828C190.365 38.8398 189.275 38.3184 187.869 38.3184C186.416 38.3184 185.309 38.8398 184.547 39.8828C183.797 40.9258 183.422 42.4199 183.422 44.3652V45.1738C183.422 47.084 183.809 48.5723 184.582 49.6387C185.355 50.7051 186.463 51.2383 187.904 51.2383C189.264 51.2383 190.336 50.7109 191.121 49.6562C191.918 48.6016 192.316 47.0898 192.316 45.1211V44.3652ZM217.084 38.6348H210.439V55H205.342V38.6348H198.82V34.5215H217.084V38.6348ZM232.992 46.4746H224.537V50.9219H234.486V55H219.439V34.5215H234.504V38.6348H224.537V42.3789H232.992V46.4746ZM254.49 47.9863C254.35 50.2246 253.465 52 251.836 53.3125C250.219 54.625 248.086 55.2812 245.438 55.2812C242.59 55.2812 240.346 54.4141 238.705 52.6797C237.076 50.9336 236.238 48.5312 236.191 45.4727V44.3125C236.191 41.2539 237.018 38.8105 238.67 36.9824C240.334 35.1543 242.578 34.2402 245.402 34.2402C248.051 34.2402 250.172 34.9023 251.766 36.2266C253.359 37.5508 254.273 39.3789 254.508 41.7109H249.428C249.311 39.4609 247.969 38.3359 245.402 38.3359C242.73 38.3359 241.354 40.2051 241.271 43.9434V45.2441C241.271 47.3418 241.594 48.8594 242.238 49.7969C242.895 50.7344 243.961 51.2031 245.438 51.2031C246.715 51.2031 247.676 50.9453 248.32 50.4297C248.977 49.9141 249.334 49.0996 249.393 47.9863H254.49ZM269.836 51.0977H261.908L260.467 55H255.369L263.473 34.5215H268.254L276.428 55H271.295L269.836 51.0977ZM263.279 47.3711H268.43L265.846 40.4453L263.279 47.3711ZM305.379 55H300.299L292.213 42.2383V55H287.115V34.5215H292.213L300.299 47.3008V34.5215H305.379V55ZM321.586 51.0977H313.658L312.217 55H307.119L315.223 34.5215H320.004L328.178 55H323.045L321.586 51.0977ZM315.029 47.3711H320.18L317.596 40.4453L315.029 47.3711ZM347.338 47.9863C347.197 50.2246 346.312 52 344.684 53.3125C343.066 54.625 340.934 55.2812 338.285 55.2812C335.438 55.2812 333.193 54.4141 331.553 52.6797C329.924 50.9336 329.086 48.5312 329.039 45.4727V44.3125C329.039 41.2539 329.865 38.8105 331.518 36.9824C333.182 35.1543 335.426 34.2402 338.25 34.2402C340.898 34.2402 343.02 34.9023 344.613 36.2266C346.207 37.5508 347.121 39.3789 347.355 41.7109H342.275C342.158 39.4609 340.816 38.3359 338.25 38.3359C335.578 38.3359 334.201 40.2051 334.119 43.9434V45.2441C334.119 47.3418 334.441 48.8594 335.086 49.7969C335.742 50.7344 336.809 51.2031 338.285 51.2031C339.562 51.2031 340.523 50.9453 341.168 50.4297C341.824 49.9141 342.182 49.0996 342.24 47.9863H347.338ZM355.406 55H350.309V34.5215H355.406V55ZM377.73 45.1738C377.73 47.1777 377.338 48.9473 376.553 50.4824C375.768 52.0176 374.643 53.2012 373.178 54.0332C371.725 54.8652 370.072 55.2812 368.221 55.2812C366.357 55.2812 364.693 54.8711 363.229 54.0508C361.775 53.2305 360.65 52.0645 359.854 50.5527C359.057 49.0293 358.652 47.2773 358.641 45.2969V44.3828C358.641 42.3672 359.033 40.5918 359.818 39.0566C360.604 37.5215 361.723 36.3379 363.176 35.5059C364.629 34.6621 366.299 34.2402 368.186 34.2402C370.037 34.2402 371.684 34.6504 373.125 35.4707C374.578 36.291 375.703 37.4688 376.5 39.0039C377.309 40.5273 377.719 42.2852 377.73 44.2773V45.1738ZM372.633 44.3652C372.633 42.4199 372.24 40.9258 371.455 39.8828C370.682 38.8398 369.592 38.3184 368.186 38.3184C366.732 38.3184 365.625 38.8398 364.863 39.8828C364.113 40.9258 363.738 42.4199 363.738 44.3652V45.1738C363.738 47.084 364.125 48.5723 364.898 49.6387C365.672 50.7051 366.779 51.2383 368.221 51.2383C369.58 51.2383 370.652 50.7109 371.438 49.6562C372.234 48.6016 372.633 47.0898 372.633 45.1211V44.3652ZM398.895 55H393.814L385.729 42.2383V55H380.631V34.5215H385.729L393.814 47.3008V34.5215H398.895V55ZM415.102 51.0977H407.174L405.732 55H400.635L408.738 34.5215H413.52L421.693 55H416.561L415.102 51.0977ZM408.545 47.3711H413.695L411.111 40.4453L408.545 47.3711ZM428.514 50.9219H437.848V55H423.416V34.5215H428.514V50.9219Z" fill="black"/>
<defs>
<linearGradient id="paint0_linear" x1="45.5" y1="3" x2="45.5" y2="88" gradientUnits="userSpaceOnUse">
<stop stop-color="#FF5C5C"/>
<stop offset="1" stop-color="#8B7575"/>
</linearGradient>
<linearGradient id="paint1_linear" x1="45.5" y1="23.4327" x2="45.5" y2="70.0193" gradientUnits="userSpaceOnUse">
<stop stop-color="#FF0000"/>
<stop offset="1" stop-color="#8B7575"/>
</linearGradient>
</defs>
</svg>
